# xmcd
#
# Track frame offsets: 
#        150
#        16839
#        36495
#        54720
#        67157
#        87431
#        101780
#        122770
#        144695
#        161010
#
# Disc length: 2241 seconds
#
# Revision: 0
# Processed by: cddbd v1.5.2PL0 Copyright (c) Steve Scherf et al.
# Submitted via: ExactAudioCopy v0.99pb4
#
DISCID=9308bf0a
DTITLE=Marzio Lenzi and Raze Blues - I Should Just Say So
DYEAR=2004
DGENRE=Blues
TTITLE0=My Lost Girl
TTITLE1=Raze Woman
TTITLE2=I Should Just Say So
TTITLE3=Mellow Cat Shuffle
TTITLE4=She's My Babe
TTITLE5=I'm the Jumper
TTITLE6=Schane's Blues
TTITLE7=The Sea Is Plenty of Fish
TTITLE8=You Put Me Down
TTITLE9=My Painful Feet
EXTD=
EXTT0=
EXTT1=
EXTT2=
EXTT3=
EXTT4=
EXTT5=
EXTT6=
EXTT7=
EXTT8=
EXTT9=
PLAYORDER=
